<svg width="1440" height="1584" viewBox="0 0 1440 1584" fill="none" xmlns="http://www.w3.org/2000/svg">
<path d="M-2162.93 291.076C-2020.71 346.028 -1895.65 418.808 -1793.76 505.92C-1553.88 712.997 -1593.68 882.884 -1452.61 905.835C-1234.61 941.285 -1078.85 545.327 -615.234 471.949C-275.194 418.1 63.6178 564.282 142.038 598.154C447.984 730.129 483.672 883.816 706.475 882.441C869.453 881.554 920.536 798.958 1176.81 758.197C1355.22 729.824 1510.08 741.247 1614.21 755.613" stroke="#1E88E5" stroke-width="2" stroke-miterlimit="10"/>
<path d="M-2163.45 309.56C-2021.21 364.53 -1896.13 437.321 -1794.21 524.438C-1554.34 731.555 -1594.14 901.402 -1453.12 924.357C-1235.07 959.803 -1079.31 563.846 -615.749 490.472C-275.648 436.658 63.1634 582.84 141.581 616.672C447.527 748.647 483.157 902.339 706.017 900.959C868.995 900.072 920.021 817.481 1176.35 776.715C1354.82 748.338 1509.62 759.766 1613.76 774.132" stroke="#1E88E5" stroke-width="2" stroke-miterlimit="10"/>
<path d="M-2163.97 328.043C-2021.72 383.001 -1896.63 455.793 -1794.73 542.921C-1554.86 750.038 -1594.65 919.886 -1453.58 942.836C-1235.76 978.3 -1079.77 582.324 -616.21 508.951C-276.167 455.141 62.6449 601.323 141.062 635.155C447.011 767.17 482.696 920.818 705.499 919.443C868.477 918.556 919.557 835.92 1175.83 795.159C1354.3 766.782 1509.1 778.21 1613.24 792.576" stroke="#1E88E5" stroke-width="2" stroke-miterlimit="10"/>
<path d="M-2164.37 346.518C-2022.15 401.505 -1897.09 474.31 -1795.19 561.44C-1555.32 768.557 -1595.11 938.404 -1454.1 961.359C-1236.05 996.805 -1080.29 600.847 -616.728 527.474C-276.627 473.659 62.1843 619.842 140.602 653.674C446.551 785.688 482.178 939.341 705.039 937.961C868.016 937.074 919.039 854.443 1175.37 813.678C1353.84 785.3 1508.64 796.728 1612.78 811.094" stroke="#1E88E5" stroke-width="2" stroke-miterlimit="10"/>
<path d="M-2164.95 365.005C-2022.71 419.976 -1897.63 492.766 -1795.72 579.883C-1555.78 786.996 -1595.63 956.887 -1454.57 979.798C-1236.57 1015.25 -1080.75 619.287 -617.193 545.913C-277.092 492.099 61.6617 638.285 140.137 672.113C446.028 804.132 481.713 957.78 704.516 956.405C867.494 955.518 918.574 872.882 1174.85 832.121C1353.31 803.744 1508.12 815.211 1612.25 829.538" stroke="#1E88E5" stroke-width="2" stroke-miterlimit="10"/>
<path d="M-2165.41 383.484C-2023.19 438.466 -1898.11 511.255 -1796.18 598.362C-1556.3 805.479 -1596.09 975.366 -1455.08 998.282C-1237.2 1033.74 -1081.27 637.77 -617.665 564.234C-277.622 510.424 61.1895 656.607 139.607 690.439C445.556 822.453 481.183 976.106 704.043 974.726C867.021 973.839 918.044 891.208 1174.37 850.443C1352.84 822.065 1507.65 833.533 1611.84 847.855" stroke="#1E88E5" stroke-width="2" stroke-miterlimit="10"/>
<path d="M-2165.82 401.998C-2023.59 456.988 -1898.55 529.81 -1796.69 616.963C-1556.76 824.076 -1596.61 993.967 -1455.54 1016.88C-1237.54 1052.37 -1081.72 656.406 -618.165 583.032C-278.067 529.179 60.6871 675.365 139.162 709.193C445.053 841.212 480.738 994.86 703.541 993.485C866.519 992.598 917.599 909.963 1173.87 869.201C1352.34 840.863 1507.15 852.291 1611.28 866.618" stroke="#1E88E5" stroke-width="2" stroke-miterlimit="10"/>
<path d="M-2166.4 420.324C-2024.15 475.281 -1899.07 548.074 -1797.17 635.202C-1557.29 842.28 -1597.09 1012.17 -1456.08 1035.12C-1238.02 1070.57 -1082.26 674.61 -618.646 601.232C-278.606 547.382 60.206 693.565 138.626 727.436C444.572 859.411 480.2 1013.06 703.063 1011.72C866.041 1010.84 917.121 928.201 1173.4 887.479C1351.81 859.106 1506.61 870.534 1610.8 884.896" stroke="#1E88E5" stroke-width="2" stroke-miterlimit="10"/>
<path d="M-2166.91 438.961C-2024.66 493.927 -1899.56 566.716 -1797.62 653.835C-1557.75 860.913 -1597.6 1030.8 -1456.53 1053.75C-1238.65 1089.21 -1082.71 693.243 -619.164 619.751C-279.066 565.897 59.6877 712.084 138.166 745.951C444.054 877.931 479.742 1031.62 702.545 1030.24C865.523 1029.36 916.606 946.76 1172.88 905.999C1351.35 877.621 1506.15 889.049 1610.28 903.415" stroke="#1E88E5" stroke-width="2" stroke-miterlimit="10"/>
<path d="M-2167.26 457.431C-2025.04 512.457 -1899.99 585.305 -1798.13 672.476C-1558.25 879.593 -1598.05 1049.44 -1456.98 1072.39C-1238.98 1107.84 -1083.22 711.883 -619.605 638.505C-279.565 584.656 59.2469 730.838 137.667 764.71C443.613 896.685 479.244 1050.38 702.104 1049C865.082 1048.11 916.165 965.514 1172.44 924.753C1350.85 896.38 1505.65 907.808 1609.84 922.169" stroke="#1E88E5" stroke-width="2" stroke-miterlimit="10"/>
<path d="M-2167.84 475.842C-2025.62 530.824 -1900.54 603.613 -1798.61 690.72C-1558.73 897.837 -1598.53 1067.68 -1457.51 1090.64C-1239.52 1126.09 -1083.7 730.128 -620.14 656.755C-280.039 602.94 58.7151 749.127 137.19 782.954C443.078 914.934 478.766 1068.62 701.627 1067.24C864.547 1066.36 915.63 983.763 1171.96 942.998C1350.43 914.62 1505.23 926.048 1609.37 940.414" stroke="#1E88E5" stroke-width="2" stroke-miterlimit="10"/>
<path d="M-2168.36 494.403C-2026.12 549.373 -1901.04 622.164 -1799.12 709.281C-1559.25 916.398 -1599.04 1086.25 -1457.97 1109.2C-1239.98 1144.65 -1084.22 748.689 -620.601 675.31C-280.557 621.501 58.2542 767.683 136.672 801.515C442.621 933.529 478.248 1087.18 701.108 1085.8C864.086 1084.92 915.166 1002.28 1171.44 961.519C1349.85 933.146 1504.65 944.574 1608.85 958.935" stroke="#1E88E5" stroke-width="2" stroke-miterlimit="10"/>
<path d="M-2168.7 512.873C-2026.49 567.866 -1901.42 640.654 -1799.47 727.751C-1559.59 934.868 -1599.39 1104.71 -1458.37 1127.67C-1240.5 1163.09 -1084.57 767.001 -621.117 693.794C-281.016 639.979 57.7378 786.166 136.213 819.994C442.104 952.013 477.789 1105.66 700.649 1104.28C863.57 1103.4 914.65 1020.76 1170.98 979.998C1349.45 951.62 1504.25 963.088 1608.39 977.414" stroke="#1E88E5" stroke-width="2" stroke-miterlimit="10"/>
<path d="M-2169.34 531.365C-2027.1 586.336 -1902.02 659.126 -1800.1 746.243C-1560.23 953.36 -1600.02 1123.25 -1458.95 1146.16C-1240.96 1181.61 -1085.2 785.651 -621.581 712.273C-281.538 658.463 57.2739 804.645 135.634 838.482C441.583 970.496 477.21 1124.15 700.07 1122.77C863.048 1121.88 914.128 1039.25 1170.4 998.486C1348.81 970.113 1503.62 981.58 1607.81 995.902" stroke="#1E88E5" stroke-width="2" stroke-miterlimit="10"/>
<path d="M-2169.8 549.844C-2027.58 604.826 -1902.5 677.615 -1800.57 764.722C-1560.69 971.839 -1600.48 1141.73 -1459.47 1164.64C-1241.54 1200.1 -1085.66 804.13 -622.097 730.796C-281.997 676.981 56.7574 823.168 135.232 856.996C441.124 989.015 476.809 1142.66 699.669 1141.28C862.589 1140.4 913.669 1057.77 1170 1017C1348.47 988.662 1503.27 1000.09 1607.41 1014.42" stroke="#1E88E5" stroke-width="2" stroke-miterlimit="10"/>
<path d="M-2170.14 568.352C-2027.88 623.299 -1902.8 696.093 -1800.91 783.23C-1561.03 990.308 -1600.83 1160.19 -1459.76 1183.11C-1241.94 1218.61 -1086.01 822.52 -622.557 749.274C-282.517 695.424 56.2949 841.607 134.712 875.439C440.661 1007.45 476.289 1161.11 699.149 1159.73C862.127 1158.84 913.207 1076.2 1169.48 1035.44C1347.89 1007.11 1502.7 1018.54 1606.89 1032.86" stroke="#1E88E5" stroke-width="2" stroke-miterlimit="10"/>
<path d="M-2170.77 586.883C-2028.52 641.841 -1903.44 714.633 -1801.54 801.761C-1561.67 1008.84 -1601.46 1178.73 -1460.45 1201.68C-1242.45 1237.13 -1086.63 841.169 -623.075 767.795C-282.978 713.942 55.7764 860.128 134.254 893.995C440.143 1025.97 475.831 1179.66 698.691 1178.28C861.669 1177.4 912.695 1094.8 1169.03 1054.04C1347.49 1025.66 1502.3 1037.09 1606.43 1051.46" stroke="#1E88E5" stroke-width="2" stroke-miterlimit="10"/>
<path d="M-2171.3 605.328C-2029.05 660.286 -1903.97 733.078 -1802.06 820.207C-1562.19 1027.28 -1601.99 1197.17 -1460.91 1220.12C-1242.98 1255.58 -1087.16 859.614 -623.536 786.315C-283.495 732.466 55.3161 878.648 133.737 912.519C439.682 1044.49 475.313 1198.19 698.173 1196.81C861.151 1195.92 912.234 1113.32 1168.51 1072.56C1346.92 1044.19 1501.72 1055.62 1605.91 1069.98" stroke="#1E88E5" stroke-width="2" stroke-miterlimit="10"/>
<path d="M-2171.59 623.794C-2029.35 678.764 -1904.27 751.555 -1802.35 838.672C-1562.48 1045.79 -1602.28 1215.64 -1461.26 1238.59C-1243.43 1274.13 -1087.45 878.04 -624.061 804.72C-283.96 750.905 54.8517 897.087 133.269 930.919C439.157 1062.9 474.845 1216.59 697.706 1215.21C860.684 1214.32 911.71 1131.73 1168.04 1090.96C1346.51 1062.59 1501.31 1074.01 1605.45 1088.38" stroke="#1E88E5" stroke-width="2" stroke-miterlimit="10"/>
<path d="M-2172.27 642.406C-2030.02 697.363 -1904.94 770.155 -1803.03 857.284C-1563.16 1064.4 -1602.95 1234.25 -1461.88 1257.2C-1243.89 1292.65 -1088.13 896.691 -624.511 823.313C-284.476 769.385 54.3351 915.568 132.752 949.4C438.701 1081.41 474.329 1235.07 697.189 1233.69C860.167 1232.8 911.247 1150.16 1167.52 1109.4C1345.93 1081.03 1500.73 1092.46 1604.93 1106.82" stroke="#1E88E5" stroke-width="2" stroke-miterlimit="10"/>
<path d="M-2172.74 660.769C-2030.51 715.74 -1905.43 788.53 -1803.51 875.647C-1563.63 1082.76 -1603.43 1252.61 -1462.41 1275.57C-1244.42 1311.02 -1088.6 915.055 -625.03 841.839C-284.929 788.024 53.8824 934.207 132.3 968.039C438.191 1100.06 473.876 1253.71 696.736 1252.33C859.714 1251.44 910.737 1168.81 1167.07 1128.04C1345.53 1099.67 1500.34 1111.09 1604.47 1125.46" stroke="#1E88E5" stroke-width="2" stroke-miterlimit="10"/>
<path d="M-2173.03 679.235C-2030.79 734.205 -1905.71 806.996 -1803.8 894.113C-1563.92 1101.23 -1603.71 1271.12 -1462.65 1294.03C-1244.87 1329.65 -1088.89 933.56 -625.503 860.16C-285.46 806.351 53.3516 952.533 131.769 986.365C437.718 1118.38 473.346 1272.03 696.206 1270.65C859.184 1269.77 910.264 1187.13 1166.54 1146.37C1344.95 1118 1499.81 1129.46 1603.94 1143.79" stroke="#1E88E5" stroke-width="2" stroke-miterlimit="10"/>
<path d="M-2173.7 697.924C-2031.48 752.906 -1906.4 825.695 -1804.47 912.802C-1564.59 1119.92 -1604.39 1289.81 -1463.38 1312.72C-1245.38 1348.17 -1089.56 952.21 -626.005 878.836C-285.92 824.825 52.8919 971.007 131.309 1004.84C437.258 1136.85 472.886 1290.51 695.746 1289.13C858.724 1288.24 909.746 1205.61 1166.08 1164.84C1344.54 1136.47 1499.35 1147.93 1603.48 1162.26" stroke="#1E88E5" stroke-width="2" stroke-miterlimit="10"/>
<path d="M-2174.24 716.253C-2031.99 771.199 -1906.91 843.978 -1805.01 931.092C-1565.13 1138.21 -1604.93 1308.1 -1463.86 1331.01C-1245.86 1366.5 -1090.1 970.539 -626.484 897.122C-286.441 843.312 52.371 989.494 130.788 1023.33C436.737 1155.34 472.422 1308.99 695.225 1307.61C858.203 1306.73 909.283 1224.09 1165.56 1183.33C1343.97 1155 1498.83 1166.42 1602.96 1180.75" stroke="#1E88E5" stroke-width="2" stroke-miterlimit="10"/>
<path d="M-2174.47 734.707C-2032.22 789.665 -1907.14 862.457 -1805.24 949.585C-1565.36 1156.66 -1605.16 1326.55 -1464.14 1349.5C-1246.31 1385.17 -1090.32 989.072 -627.001 915.637C-286.903 861.784 51.9081 1007.97 130.329 1041.84C436.274 1173.81 471.902 1327.47 694.765 1326.12C857.743 1325.24 908.766 1242.61 1165.1 1201.88C1343.57 1173.5 1498.37 1184.93 1602.51 1199.3" stroke="#1E88E5" stroke-width="2" stroke-miterlimit="10"/>
<path d="M-2175.22 753.209C-2032.97 808.166 -1907.89 880.958 -1805.98 968.087C-1566.11 1175.16 -1605.91 1345.05 -1464.83 1368C-1246.84 1403.45 -1091.02 1007.49 -627.462 934.116C-287.421 880.267 51.3809 1026.33 129.868 1060.32C435.756 1192.3 471.445 1345.98 694.247 1344.61C857.225 1343.72 908.308 1261.13 1164.58 1220.36C1343.05 1191.99 1497.85 1203.41 1601.99 1217.78" stroke="#1E88E5" stroke-width="2" stroke-miterlimit="10"/>
<path d="M-2175.68 771.688C-2033.44 826.658 -1908.37 899.449 -1806.45 986.566C-1566.57 1193.68 -1606.37 1363.53 -1465.35 1386.49C-1247.3 1421.93 -1091.54 1025.97 -627.982 952.6C-287.884 898.746 50.9277 1044.93 129.348 1078.8C435.294 1210.77 470.924 1364.47 693.785 1363.09C856.763 1362.2 907.789 1279.61 1164.12 1238.84C1342.59 1210.47 1497.39 1221.89 1601.52 1236.26" stroke="#1E88E5" stroke-width="2" stroke-miterlimit="10"/>
</svg>
